<svg id="fixed-icon-4" data-name="fixed-icon-4" xmlns="http://www.w3.org/2000/svg" viewBox="0 0 17.77 17.77">
  <defs>
    <style>
      .icon-cls-4 {
        fill: #b28247;
      }
    </style>
  </defs>
  <path class="icon-cls-4" d="M2.28,0H15.49a2.29,2.29,0,0,1,2.28,2.28V15.49a2.29,2.29,0,0,1-2.28,2.28H2.28A2.29,2.29,0,0,1,0,15.49V2.28A2.29,2.29,0,0,1,2.28,0ZM12.95,2a.8.8,0,0,0-.8.8V4.69a.8.8,0,0,0,.8.8h2a.8.8,0,0,0,.8-.8V2.77A.8.8,0,0,0,15,2Zm2.82,5.54H14.2A5.2,5.2,0,0,1,14.43,9,5.44,5.44,0,0,1,8.9,14.39,5.44,5.44,0,0,1,3.38,9a5.22,5.22,0,0,1,.23-1.53H2V15a.71.71,0,0,0,.71.71H15.06a.71.71,0,0,0,.71-.71ZM8.9,5.39A3.51,3.51,0,0,0,5.33,8.85,3.52,3.52,0,0,0,8.9,12.3a3.52,3.52,0,0,0,3.57-3.46A3.51,3.51,0,0,0,8.9,5.39Z"
  />
</svg>