<svg id="fixed-icon-1" data-name="fixed-icon-1" xmlns="http://www.w3.org/2000/svg" viewBox="0 0 20.19 22.34">
  <defs>
    <style>
      .icon-cls-1 {
        fill: #f39800;
      }
    </style>
  </defs>
  <path class="icon-cls-1" d="M14,2.59a7.72,7.72,0,0,0-2.11-.85,1.78,1.78,0,0,0-3.55,0,7.76,7.76,0,0,0-6,7.55v5.22A2.34,2.34,0,0,0,0,16.85v1.65H20.19V16.85a2.34,2.34,0,0,0-2.34-2.34V9.29a7.71,7.71,0,0,0-.57-2.9A4.05,4.05,0,0,1,14,2.59Z"
  />
  <path class="icon-cls-1" d="M10.1,22.34a3.39,3.39,0,0,0,3.25-2.46H6.84A3.39,3.39,0,0,0,10.1,22.34Z" />
</svg>