<svg id="fixed-icon-3" data-name="fixed-icon-3" xmlns="http://www.w3.org/2000/svg" viewBox="0 0 22.27 21.22">
  <defs>
    <style>
      .icon-cls-3 {
        fill: #00913a;
      }
    </style>
  </defs>
  <path class="icon-cls-3" d="M22.27,9c0-5-5-9-11.14-9S0,4.05,0,9C0,13.5,4,17.24,9.31,18c.36.08.86.24,1,.55a2.29,2.29,0,0,1,0,1l-.16,1c0,.28-.22,1.1,1,.6a36,36,0,0,0,8.75-6.47h0A8,8,0,0,0,22.27,9ZM7.21,11.7a.22.22,0,0,1-.22.22H3.87a.22.22,0,0,1-.15-.06h0a.22.22,0,0,1-.06-.15h0V6.85a.22.22,0,0,1,.22-.22h.78a.22.22,0,0,1,.22.22V10.7H7a.22.22,0,0,1,.22.22Zm1.88,0a.22.22,0,0,1-.22.22H8.09a.22.22,0,0,1-.22-.22V6.85a.22.22,0,0,1,.22-.22h.78a.22.22,0,0,1,.22.22Zm5.38,0a.22.22,0,0,1-.22.22h-.9l-.06-.05-2.23-3V11.7a.22.22,0,0,1-.22.22h-.78a.22.22,0,0,1-.22-.22V6.85a.22.22,0,0,1,.22-.22H11l0,0,2.22,3V6.85a.22.22,0,0,1,.22-.22h.78a.22.22,0,0,1,.22.22Zm4.31-4.07a.22.22,0,0,1-.22.22H16.44v.82h2.12a.22.22,0,0,1,.22.22v.78a.22.22,0,0,1-.22.22H16.44v.82h2.12a.22.22,0,0,1,.22.22v.78a.22.22,0,0,1-.22.22H15.44a.22.22,0,0,1-.15-.06h0a.22.22,0,0,1-.06-.15h0V6.85h0a.22.22,0,0,1,.06-.15h0a.22.22,0,0,1,.15-.06h3.12a.22.22,0,0,1,.22.22Z"
  />
</svg>