<?xml version="1.0" encoding="UTF-8"?>
<svg width="463px" height="534px" viewBox="0 0 463 534" version="1.1" xmlns="http://www.w3.org/2000/svg" xmlns:xlink="http://www.w3.org/1999/xlink">
    <!-- Generator: Sketch 41.2 (35397) - http://www.bohemiancoding.com/sketch -->
    <title>moutain</title>
    <desc>Created with Sketch.</desc>
    <defs></defs>
    <g id="moutain_2" stroke="none" stroke-width="1" fill="none" fill-rule="evenodd">
        <g id="moutain2" transform="translate(1.000000, 1.000000)">
            <g id="moutain_2">
                <g id="moutain2">
                    <polygon id="Polygon" stroke="#979797" fill="#D8D8D8" points="230.446765 0 460.893531 133.048502 460.893531 399.145506 230.446765 532.194008 1.49213974e-13 399.145506 0 133.048502"></polygon>
                    <g id="工作區域-4" transform="translate(86.000000, 140.000000)" fill="#000000">
                        <g id="BG">
                            <path d="M271.66,205.9125 L108.375,205.9125 C106.537674,205.364845 105.278303,203.675335 105.278303,201.758125 C105.278303,199.840915 106.537674,198.151405 108.375,197.60375 L267.325,197.60375 L267.325,23.48125 L93.2025,23.48125 L93.2025,83.0875 C93.7315298,84.8623394 93.0746155,86.7772362 91.5674808,87.8535599 C90.0603461,88.9298835 88.0359039,88.9298835 86.5287692,87.8535599 C85.0216345,86.7772362 84.3647202,84.8623394 84.89375,83.0875 L84.89375,19.14625 C84.89375,16.7520956 86.8345956,14.81125 89.22875,14.81125 L271.66,14.81125 C274.054154,14.81125 275.995,16.7520956 275.995,19.14625 L275.995,201.5775 C275.995,203.971654 274.054154,205.9125 271.66,205.9125 L271.66,205.9125 Z" id="Shape"></path>
                            <path d="M286.47125,190.74 C284.077096,190.74 282.13625,188.799154 282.13625,186.405 L282.13625,8.30875 L104.04,8.30875 C102.202674,7.76109462 100.943303,6.07158495 100.943303,4.154375 C100.943303,2.23716505 102.202674,0.547655384 104.04,1.44384504e-15 L286.47125,1.44384504e-15 C288.149949,0.760564066 289.164257,2.49937797 289,4.335 L289,186.76625 C289.012963,188.473175 288.023014,190.02881 286.47125,190.74 Z" id="Shape"></path>
                            <path d="M223.975,144.5 C221.580846,144.5 219.64,142.559154 219.64,140.165 C221.072255,125.26331 213.930512,110.838436 201.211446,102.943054 C188.492379,95.0476714 172.396371,95.0476714 159.677304,102.943054 C146.958238,110.838436 139.816495,125.26331 141.24875,140.165 C141.77778,141.939839 141.120865,143.854736 139.613731,144.93106 C138.106596,146.007384 136.082154,146.007384 134.575019,144.93106 C133.067885,143.854736 132.41097,141.939839 132.94,140.165 C132.94,123.12879 142.028709,107.386683 156.7825,98.8685778 C171.53629,90.3504727 189.71371,90.3504727 204.4675,98.8685778 C219.221291,107.386683 228.31,123.12879 228.31,140.165 C228.31,142.559154 226.369154,144.5 223.975,144.5 L223.975,144.5 Z" id="Shape"></path>
                            <path d="M180.625,87.4225 C166.858612,87.4225 155.69875,76.2626377 155.69875,62.49625 C155.69875,48.7298623 166.858612,37.57 180.625,37.57 C194.391388,37.57 205.55125,48.7298623 205.55125,62.49625 C205.55125,76.2626377 194.391388,87.4225 180.625,87.4225 Z M180.625,45.87875 C171.447408,45.87875 164.0075,53.3186582 164.0075,62.49625 C164.0075,71.6738418 171.447408,79.11375 180.625,79.11375 C189.802592,79.11375 197.2425,71.6738418 197.2425,62.49625 C197.2425,53.3186582 189.802592,45.87875 180.625,45.87875 L180.625,45.87875 Z" id="Shape"></path>
                            <path d="M247.095,180.625 L157.86625,180.625 C156.028924,180.077345 154.769553,178.387835 154.769553,176.470625 C154.769553,174.553415 156.028924,172.863905 157.86625,172.31625 L247.095,172.31625 C248.932326,172.863905 250.191697,174.553415 250.191697,176.470625 C250.191697,178.387835 248.932326,180.077345 247.095,180.625 L247.095,180.625 Z" id="Shape"></path>
                            <path d="M70.0825,165.81375 L67.55375,165.81375 C66.6323797,164.383908 66.6323797,162.547342 67.55375,161.1175 L72.25,140.52625 L55.6325,128.605 C54.3173486,127.455063 53.8209752,125.628066 54.3734223,123.970724 C54.9258695,122.313383 56.4191666,121.149609 58.16125,121.01875 L78.7525,121.01875 L85.255,101.51125 C85.9441164,99.9306523 87.5044615,98.9087441 89.22875,98.9087441 C90.9530385,98.9087441 92.5133836,99.9306523 93.2025,101.51125 L99.705,121.01875 L120.29625,121.01875 C122.038333,121.149609 123.531631,122.313383 124.084078,123.970724 C124.636525,125.628066 124.140151,127.455063 122.825,128.605 L106.2075,140.8875 L112.71,160.395 C113.121394,162.10481 112.45905,163.893741 111.033385,164.923388 C109.60772,165.953035 107.701262,166.019349 106.2075,165.09125 L89.59,152.80875 L72.25,165.09125 L70.0825,165.81375 Z M89.22875,144.5 L91.7575,144.5 L100.4275,151.0025 L97.17625,140.52625 C96.2548797,139.096408 96.2548797,137.259842 97.17625,135.83 L108.375,129.3275 L97.5375,129.3275 C95.7421447,129.28033 94.1617887,128.13098 93.56375,126.4375 L90.3125,115.96125 L87.06125,126.4375 C86.4632113,128.13098 84.8828553,129.28033 83.0875,129.3275 L72.25,129.3275 L80.92,135.83 C81.8413703,137.259842 81.8413703,139.096408 80.92,140.52625 L77.66875,151.0025 L86.7,144.5 L89.22875,144.5 Z" id="Shape"></path>
                            <path d="M89.22875,184.96 C67.6852393,185.106063 48.188383,172.221596 39.8764237,152.345592 C31.5644644,132.469588 36.0847861,109.541361 51.3186987,94.3074487 C66.5526114,79.0735361 89.4808383,74.5532144 109.356842,82.8651737 C129.232846,91.177133 142.117313,110.673989 141.97125,132.2175 C141.774315,161.264414 118.275664,184.763065 89.22875,184.96 Z M89.22875,87.4225 C71.0787069,87.2761239 54.63428,98.0967795 47.5868985,114.823402 C40.5395171,131.550025 44.2823042,150.876103 57.0646741,163.762395 C69.847044,176.648686 89.1421834,180.547835 105.925321,173.63612 C122.708458,166.724406 133.66191,150.368133 133.6625,132.2175 C133.6633,107.618298 113.827152,87.6208807 89.22875,87.4225 Z" id="Shape"></path>
                            <path d="M69.72125,243.12125 L67.915,243.12125 C66.6166165,242.372716 65.7969667,241.006634 65.7475,239.50875 L65.7475,177.735 C66.2951554,175.897674 67.9846651,174.638303 69.901875,174.638303 C71.8190849,174.638303 73.5085946,175.897674 74.05625,177.735 L74.05625,230.4775 L86.7,221.085 C88.2111626,219.999706 90.2463374,219.999706 91.7575,221.085 L104.40125,230.4775 L104.40125,177.735 C103.87222,175.960161 104.529135,174.045264 106.036269,172.96894 C107.543404,171.892616 109.567846,171.892616 111.074981,172.96894 C112.582115,174.045264 113.23903,175.960161 112.71,177.735 L112.71,239.1475 C112.545139,240.605734 111.653705,241.881553 110.341112,242.537849 C109.028519,243.194146 107.473004,243.141801 106.2075,242.39875 L89.22875,229.755 L72.25,242.39875 L69.72125,243.12125 Z" id="Shape"></path>
                        </g>
                    </g>
                </g>
            </g>
        </g>
    </g>
</svg>