<?xml version="1.0" encoding="UTF-8"?>
<svg width="463px" height="534px" viewBox="0 0 463 534" version="1.1" xmlns="http://www.w3.org/2000/svg" xmlns:xlink="http://www.w3.org/1999/xlink">
    <!-- Generator: Sketch 41.2 (35397) - http://www.bohemiancoding.com/sketch -->
    <title>moutain</title>
    <desc>Created with Sketch.</desc>
    <defs></defs>
    <g id="moutain_1_1" stroke="none" stroke-width="1" fill="none" fill-rule="evenodd">
        <g id="moutain" transform="translate(1.000000, 1.000000)">
            <g id="moutain_1_1">
                <g id="moutain">
                    <polygon id="Polygon" stroke="#979797" fill="#D8D8D8" points="230.446765 0 460.893531 133.048502 460.893531 399.145506 230.446765 532.194008 1.49213974e-13 399.145506 0 133.048502"></polygon>
                    <g id="工作區域-3" transform="translate(86.000000, 122.000000)" fill="#000000">
                        <g id="BG">
                            <path d="M247.714286,265.88 L46.24,265.88 C44.3538796,266.146123 42.4822079,265.307339 41.4256137,263.722448 C40.3690195,262.137557 40.3146313,260.087251 41.2857143,258.448571 L142.022857,101.562857 C142.960928,100.347315 144.409578,99.6354084 145.945,99.6354084 C147.480422,99.6354084 148.929072,100.347315 149.867143,101.562857 L250.604286,258.448571 C251.476146,259.956567 251.492013,261.811639 250.646075,263.334327 C249.800137,264.857016 248.216693,265.823582 246.475714,265.88 L247.714286,265.88 Z M54.91,256.384286 L238.631429,256.384286 L146.564286,113.122857 L54.91,256.384286 Z" id="Shape"></path>
                            <path d="M126.747143,197.345714 L126.747143,197.345714 C125.678599,197.723501 124.512829,197.723501 123.444286,197.345714 L103.214286,171.748571 C101.501868,170.622806 100.659311,168.558919 101.094631,166.556365 C101.52995,164.553812 103.153286,163.025966 105.178524,162.712701 C107.203762,162.399435 109.212845,163.365416 110.232857,165.142857 L127.16,186.611429 L143.674286,172.161429 C145.484249,170.712298 148.05718,170.712298 149.867143,172.161429 L166.381429,186.611429 L183.308571,165.142857 C184.033537,163.118881 185.981127,161.793459 188.12994,161.8617 C190.278754,161.929942 192.138319,163.37627 192.7334,165.442169 C193.32848,167.508067 192.523247,169.721988 190.74,170.922857 L170.51,196.52 C169.580402,197.452832 168.317653,197.977164 167.000714,197.977164 C165.683775,197.977164 164.421027,197.452832 163.491429,196.52 L146.564286,181.244286 L129.637143,196.52 C128.782556,197.087863 127.772738,197.376383 126.747143,197.345714 L126.747143,197.345714 Z" id="Shape"></path>
                            <path d="M146.564286,108.994286 C143.828109,108.994286 141.61,106.776176 141.61,104.04 L141.61,4.95428571 C141.61,2.21810927 143.828109,5.02627459e-16 146.564286,0 L215.511429,0 C216.825387,-9.25577828e-15 218.085529,0.521967889 219.014638,1.45107669 C219.943746,2.38018549 220.465714,3.64032745 220.465714,4.95428571 L220.465714,46.24 C220.465714,48.9761764 218.247605,51.1942857 215.511429,51.1942857 L151.518571,51.1942857 L151.518571,104.04 C151.518571,106.776176 149.300462,108.994286 146.564286,108.994286 L146.564286,108.994286 Z M151.518571,41.2857143 L210.557143,41.2857143 L210.557143,9.49571429 L151.518571,9.49571429 L151.518571,41.2857143 Z" id="Shape"></path>
                        </g>
                    </g>
                </g>
            </g>
        </g>
    </g>
</svg>