<svg id="圖層_1" data-name="圖層 1" xmlns="http://www.w3.org/2000/svg" viewBox="0 0 15.5 16.43"><defs><style>.cls-1{fill:#b28247;}</style></defs><title>工作區域 2</title><path class="cls-1" d="M14.68,11.39a16,16,0,0,0-5-1.44l.17-1.23a1.39,1.39,0,0,0,.68-.91l.13-1.14a.34.34,0,0,0,.21.1.33.33,0,0,0,.36-.3l.18-1.75a.33.33,0,0,0-.49-.32c0-.33.08-.67.12-1A2.77,2.77,0,0,0,10.43.94a4.29,4.29,0,0,0-5.36,0A2.77,2.77,0,0,0,4.45,3.4l.12,1a.32.32,0,0,0-.19,0,.33.33,0,0,0-.29.36l.18,1.75a.33.33,0,0,0,.36.3.34.34,0,0,0,.21-.1L5,7.81a1.4,1.4,0,0,0,.68.91L5.82,10a16,16,0,0,0-5,1.44A1.67,1.67,0,0,0,0,12.89q.09.92.18,1.85a1.39,1.39,0,0,0,1,1.17,41,41,0,0,0,13.07,0,1.39,1.39,0,0,0,1-1.17c.06-.62.12-1.23.18-1.85A1.67,1.67,0,0,0,14.68,11.39Z"/></svg>