<svg id="section-icon-4" data-name="section-icon-4" xmlns="http://www.w3.org/2000/svg" viewBox="0 0 93.28 85.13"><defs><style>.cls-1{fill:none;stroke:#fff;stroke-linecap:round;stroke-linejoin:round;stroke-width:3.92px;}</style></defs><title>工作區域 10</title><path class="cls-1" d="M28.19,39.69l22-20.33L57.84,4C59.5.61,66,1.76,67.37,5.24s-.16,12.63-2,15.92l-7,12.59L84,32.17c3.73-.23,7.28,2.53,7.28,6.26h0a7,7,0,0,1-6.27,7.28h0a6.77,6.77,0,0,1,2.45,4.72h0a6.82,6.82,0,0,1-5.29,7.14,6.8,6.8,0,0,1,3.23,5.28h0A6.82,6.82,0,0,1,80.15,70a6.8,6.8,0,0,1,3.23,5.28h0a6.69,6.69,0,0,1-6.27,7.28l-27.48.6c-10,.22-18.75-5.35-23.83-13"/><path class="cls-1" d="M7.2,31.22H19.77A5.25,5.25,0,0,1,25,36.46V77.93a5.26,5.26,0,0,1-5.24,5.24H7.2A5.26,5.26,0,0,1,2,77.93V36.46A5.25,5.25,0,0,1,7.2,31.22Zm5.92,37.32a2.35,2.35,0,1,1-2.35,2.35,2.35,2.35,0,0,1,2.35-2.35Z"/></svg>