<svg id="section-icon-2" data-name="section-icon-2" xmlns="http://www.w3.org/2000/svg" viewBox="0 0 104.63 115.38"><defs><style>.cls-1{fill:none;stroke:#fff;stroke-linecap:round;stroke-linejoin:round;stroke-width:3.92px;}</style></defs><title>工作區域 8</title><path class="cls-1" d="M38.75,85.9c-1.22-18.68-15.68-9.22-17.34-34.59-1.05-16,13.84-29.06,30.91-29.06s32,13.05,30.91,29.06C81.68,73,70.94,68.59,67,79.9"/><line class="cls-1" x1="39.22" y1="108.17" x2="67.08" y2="100.86"/><line class="cls-1" x1="39.22" y1="97.67" x2="67.08" y2="90.36"/><line class="cls-1" x1="39.22" y1="87.17" x2="67.08" y2="79.86"/><path class="cls-1" d="M62.27,104.78c0,4.78-4.45,8.65-9.94,8.65A10.39,10.39,0,0,1,44,109.55"/><line class="cls-1" x1="53.27" y1="1.96" x2="53.27" y2="11.32"/><line class="cls-1" x1="87.24" y1="14.9" x2="80.62" y2="21.51"/><line class="cls-1" x1="102.67" y1="51.35" x2="93.31" y2="51.35"/><line class="cls-1" x1="85.89" y1="86.28" x2="79.27" y2="79.66"/><line class="cls-1" x1="18.74" y1="14.9" x2="25.36" y2="21.51"/><line class="cls-1" x1="1.96" y1="49.44" x2="11.32" y2="49.44"/><line class="cls-1" x1="17.39" y1="86.28" x2="24.01" y2="79.66"/><polyline class="cls-1" points="41.15 56.22 51.31 70.21 66.61 43.2"/></svg>