<svg id="section-icon-1" data-name="section-icon-1" xmlns="http://www.w3.org/2000/svg" viewBox="0 0 114.68 110.08">
  <defs>
    <style>
      .cls-1 {
        fill: none;
        stroke: #fff;
        stroke-linecap: round;
        stroke-linejoin: round;
        stroke-width: 3.92px;
      }
    </style>
  </defs>
  <path class="cls-1" d="M36.17,34.16h0a7.31,7.31,0,0,1,10,2.36L56.43,53.05a7.27,7.27,0,0,1,3.28-4.67h0a7.31,7.31,0,0,1,9.41,1.51,7.29,7.29,0,0,1,3.43-5.69h0A7.31,7.31,0,0,1,82,45.72,7.29,7.29,0,0,1,85.39,40h0a7.18,7.18,0,0,1,10,2.36l14.16,25.86c11.51,21-10.71,48-33.06,37.51L37.77,87.49a7.31,7.31,0,0,1-3.48-9.7c3.38-2.09,10.66-3,14.31-1.31l7.34,3.46L33.81,44.19a7.31,7.31,0,0,1,2.36-10Z"
  />
  <path class="cls-1" d="M32,59a21.15,21.15,0,1,1,28-23.17" />
  <path class="cls-1" d="M23.44,72.56a37,37,0,1,1,51.3-43.05" />
</svg>