<svg id="section-icon-3" data-name="section-icon-3" xmlns="http://www.w3.org/2000/svg" viewBox="0 0 92.82 89.52"><defs><style>.cls-1{fill:none;stroke:#fff;stroke-linecap:round;stroke-linejoin:round;stroke-width:3.92px;}</style></defs><title>工作區域 9</title><path class="cls-1" d="M75,2h.86a5.37,5.37,0,0,1,5.35,5.35V76.86a5.36,5.36,0,0,1-5.35,5.35H75c-3,0-21.43-27.27-41.17-27.27H9.21A7.27,7.27,0,0,1,2,47.7V36.48a7.27,7.27,0,0,1,7.25-7.25H33.79C53.54,29.23,72,2,75,2Z"/><path class="cls-1" d="M81.1,29.08a13.55,13.55,0,0,1,0,26"/><line class="cls-1" x1="34.26" y1="29.23" x2="34.26" y2="54.95"/><path class="cls-1" d="M28.38,54.95c1,5.69-.46,11.62,3,17.07l5.85,9.21c1.47,2.32-.9,6.34-3.56,6.34H24.89a6.66,6.66,0,0,1-6.11-4.83L12.2,54.95Z"/></svg>