<svg id="圖層_1" data-name="圖層 1" xmlns="http://www.w3.org/2000/svg" xmlns:xlink="http://www.w3.org/1999/xlink" viewBox="0 0 121.68 76.81"><defs><style>.cls-1,.cls-3{fill:none;}.cls-2{clip-path:url(#clip-path);}.cls-3{stroke:#000;stroke-miterlimit:10;stroke-width:1.72px;}</style><clipPath id="clip-path"><polygon class="cls-1" points="0 76.81 76.81 0 76.81 76.81 0 76.81"/></clipPath></defs><title>工作區域 3</title><g class="cls-2"><path d="M68.07,66.13a26.59,26.59,0,0,1-19.46,8,26.71,26.71,0,0,1-19.5-8A26.32,26.32,0,0,1,21,46.71a26.59,26.59,0,0,1,8.11-19.5,26.59,26.59,0,0,1,19.5-8.11,26.46,26.46,0,0,1,19.46,8.11,26.66,26.66,0,0,1,8.07,19.5A26.39,26.39,0,0,1,68.07,66.13Zm-5.66-33.3a18.82,18.82,0,0,0-13.8-5.74A19.58,19.58,0,0,0,29,46.71a18.82,18.82,0,0,0,5.73,13.8,18.92,18.92,0,0,0,13.88,5.73A19.57,19.57,0,0,0,68.15,46.71,18.91,18.91,0,0,0,62.41,32.83Z"/></g><line class="cls-3" x1="75.5" y1="1.31" x2="5.32" y2="71.49"/><path d="M113.21,51.38a24.05,24.05,0,0,1-9.73,1.74,19.51,19.51,0,0,0-5.26.71A18.52,18.52,0,0,0,93.36,56v9.41h20.25V60h8V73.37H85.37V51.85a39.54,39.54,0,0,1,8.54-5,23.84,23.84,0,0,1,9.65-1.74,19.68,19.68,0,0,0,5.26-.71,18.5,18.5,0,0,0,4.86-2.14V29.94a21.47,21.47,0,0,0-4.86-2.1,18.7,18.7,0,0,0-5.26-.75,19.08,19.08,0,0,0-5.3.75,21.35,21.35,0,0,0-4.91,2.1v7.44h-8V25.91a39.54,39.54,0,0,1,8.54-5,26.49,26.49,0,0,1,19.3,0,37.92,37.92,0,0,1,8.46,5V46.4A37.92,37.92,0,0,1,113.21,51.38Z"/></svg>